<svg width="14" height="15" viewBox="0 0 14 15" fill="none" xmlns="http://www.w3.org/2000/svg">
<path id="Vector" fill-rule="evenodd" clip-rule="evenodd" d="M14 7.66663C14 11.5326 10.866 14.6666 7 14.6666C3.134 14.6666 0 11.5326 0 7.66663C0 3.80063 3.134 0.666626 7 0.666626C10.866 0.666626 14 3.80063 14 7.66663ZM7 11.6916C7.28994 11.6916 7.525 11.4566 7.525 11.1666V6.96663C7.525 6.67669 7.28994 6.44163 7 6.44163C6.71006 6.44163 6.475 6.67669 6.475 6.96663V11.1666C6.475 11.4566 6.71006 11.6916 7 11.6916ZM7 4.16663C7.38661 4.16663 7.7 4.48003 7.7 4.86663C7.7 5.25322 7.38661 5.56663 7 5.56663C6.61339 5.56663 6.3 5.25322 6.3 4.86663C6.3 4.48003 6.61339 4.16663 7 4.16663Z" fill="#F3F169"/>
</svg>
