<svg width="18" height="18" viewBox="0 0 18 18" fill="none" xmlns="http://www.w3.org/2000/svg">
<path id="Vector" fill-rule="evenodd" clip-rule="evenodd" d="M18 9.07358C18 13.6234 13.9705 17.3119 9 17.3119C4.02943 17.3119 0 13.6234 0 9.07358C0 4.5237 4.02943 0.835297 9 0.835297C13.9705 0.835297 18 4.5237 18 9.07358ZM9 13.8106C9.37278 13.8106 9.675 13.5339 9.675 13.1927V8.24975C9.675 7.90852 9.37278 7.63188 9 7.63188C8.62722 7.63188 8.325 7.90852 8.325 8.24975V13.1927C8.325 13.5339 8.62722 13.8106 9 13.8106ZM9 4.95444C9.49707 4.95444 9.9 5.32328 9.9 5.77826C9.9 6.23325 9.49707 6.60209 9 6.60209C8.50293 6.60209 8.1 6.23325 8.1 5.77826C8.1 5.32328 8.50293 4.95444 9 4.95444Z" fill="#1C274C"/>
</svg>
