<svg width="16" height="16" viewBox="0 0 16 16" fill="none" xmlns="http://www.w3.org/2000/svg">
<g id="language-svgrepo-com 1">
<path id="Vector" d="M7.99334 1.33334C4.31334 1.33334 1.33334 4.32001 1.33334 8.00001C1.33334 11.68 4.31334 14.6667 7.99334 14.6667C11.68 14.6667 14.6667 11.68 14.6667 8.00001C14.6667 4.32001 11.68 1.33334 7.99334 1.33334ZM12.6133 5.33334H10.6467C10.4333 4.50001 10.1267 3.70001 9.72667 2.96001C10.9533 3.38001 11.9733 4.23334 12.6133 5.33334ZM8 2.69334C8.55334 3.49334 8.98667 4.38001 9.27334 5.33334H6.72667C7.01334 4.38001 7.44667 3.49334 8 2.69334ZM2.84 9.33334C2.73334 8.90668 2.66667 8.46001 2.66667 8.00001C2.66667 7.54001 2.73334 7.09334 2.84 6.66668H5.09334C5.04 7.10668 5 7.54668 5 8.00001C5 8.45334 5.04 8.89334 5.09334 9.33334H2.84ZM3.38667 10.6667H5.35334C5.56667 11.5 5.87334 12.3 6.27334 13.04C5.04667 12.62 4.02667 11.7733 3.38667 10.6667ZM5.35334 5.33334H3.38667C4.02667 4.22668 5.04667 3.38001 6.27334 2.96001C5.87334 3.70001 5.56667 4.50001 5.35334 5.33334ZM8 13.3067C7.44667 12.5067 7.01334 11.62 6.72667 10.6667H9.27334C8.98667 11.62 8.55334 12.5067 8 13.3067ZM9.56 9.33334H6.44C6.38 8.89334 6.33334 8.45334 6.33334 8.00001C6.33334 7.54668 6.38 7.10001 6.44 6.66668H9.56C9.62 7.10001 9.66667 7.54668 9.66667 8.00001C9.66667 8.45334 9.62 8.89334 9.56 9.33334ZM9.72667 13.04C10.1267 12.3 10.4333 11.5 10.6467 10.6667H12.6133C11.9733 11.7667 10.9533 12.62 9.72667 13.04ZM10.9067 9.33334C10.96 8.89334 11 8.45334 11 8.00001C11 7.54668 10.96 7.10668 10.9067 6.66668H13.16C13.2667 7.09334 13.3333 7.54001 13.3333 8.00001C13.3333 8.46001 13.2667 8.90668 13.16 9.33334H10.9067Z" fill="white"/>
</g>
</svg>
